Coordinates
version=1
nRows=16
nColumns=36
inDegrees=yes

Units are S.I. units (second, meters, Newtons, ...)
If the header above contains a line with 'inDegrees', this indicates whether rotational values are in degrees (yes) or radians (no).

endheader
time	pelvis_tilt	pelvis_list	pelvis_rotation	pelvis_tx	pelvis_ty	pelvis_tz	hip_flexion_r	hip_adduction_r	hip_rotation_r	knee_angle_r	knee_angle_r_beta	ankle_angle_r	subtalar_angle_r	mtp_angle_r	hip_flexion_l	hip_adduction_l	hip_rotation_l	knee_angle_l	knee_angle_l_beta	ankle_angle_l	subtalar_angle_l	mtp_angle_l	lumbar_extension	lumbar_bending	lumbar_rotation	arm_flex_r	arm_add_r	arm_rot_r	elbow_flex_r	pro_sup_r	arm_flex_l	arm_add_l	arm_rot_l	elbow_flex_l	pro_sup_l
      6.69000000	    -41.33082071	      3.07201031	      3.44327556	     -0.38387629	      0.65692771	     -0.53484286	    106.43408766	     -5.68391064	      4.49206755	     84.77188248	      1.47954846	     24.94934423	    -12.64076463	     -7.49999987	    104.03591638	    -13.57811075	     -2.69559260	     77.32867180	      1.34963993	     17.34307118	     -2.01055628	     -7.49999987	    -34.69990461	      2.65390737	      2.77846397	    108.82078424	    -10.45460889	     38.00103296	    124.00337328	    115.92738754	     99.56993425	     -4.36035717	     24.87826163	    129.78254774	    114.67536760
      6.70000000	    -41.37617562	      2.94312044	      3.33623823	     -0.38398259	      0.65637645	     -0.53441278	    106.49020723	     -5.54900805	      4.33660696	     84.81214483	      1.48025117	     24.98407185	    -12.62526970	     -7.49999987	    104.24117747	    -13.70301509	     -2.49015747	     77.46997468	      1.35210613	     17.29596422	     -2.00775130	     -7.49999987	    -34.74474170	      2.66017242	      2.86943405	    108.76880001	    -10.32265689	     37.86389403	    124.00885312	    115.70204893	     99.55955645	     -4.42636929	     25.01874662	    129.83888070	    115.01995335
      6.71000000	    -41.38796741	      2.87180261	      3.25928288	     -0.38413814	      0.65595898	     -0.53405479	    106.53803912	     -5.43751621	      4.25402197	     84.85303494	      1.48096484	     24.93156618	    -12.70935002	     -7.49999987	    104.35849900	    -13.77860727	     -2.34074713	     77.55102574	      1.35352074	     17.31443158	     -2.00229770	     -7.49999987	    -34.81942494	      2.63980071	      2.95385943	    108.78430576	    -10.23742781	     37.85955177	    123.96760942	    115.66775908	     99.55175882	     -4.39163375	     25.01181634	    129.89069736	    115.12412537
      6.72000000	    -41.34962404	      2.78658730	      3.26945953	     -0.38421198	      0.65572336	     -0.53399005	    106.51323595	     -5.46606434	      4.15964003	     84.89555505	      1.48170696	     25.01779753	    -12.65033329	     -7.49999987	    104.40549848	    -13.72833368	     -2.19522997	     77.60182925	      1.35440743	     17.30546409	     -2.08608641	     -7.49999987	    -34.94104066	      2.70078373	      2.96081730	    108.85568764	    -10.16311653	     37.84914329	    123.86826885	    116.04779753	     99.56720510	     -4.38986308	     25.06065639	    129.98082536	    114.76684909
      6.73000000	    -41.47803138	      2.86580963	      3.32973119	     -0.38429304	      0.65532452	     -0.53392451	    106.71115300	     -5.50202508	      4.23479760	     84.94635348	      1.48259356	     24.65177094	    -13.11098738	     -7.49999987	    104.50658345	    -13.66967734	     -2.26032244	     77.59198245	      1.35423557	     17.38532234	     -1.92977483	     -7.49999987	    -34.82564489	      2.51646175	      2.78770566	    108.61964013	    -10.13938492	     37.52887614	    124.02531113	    116.51141797	     99.60259071	     -4.38578248	     25.64660851	    130.26986221	    111.71724188
      6.74000000	    -41.44106405	      2.83200690	      3.33109984	     -0.38417985	      0.65530034	     -0.53380500	    106.66214158	     -5.53479825	      4.17774338	     84.97444459	      1.48308384	     24.93045680	    -12.74528723	     -7.49999987	    104.48273572	    -13.62329450	     -2.16720674	     77.59960745	      1.35436865	     17.31677526	     -2.08498593	     -7.49999987	    -34.90755550	      2.51744429	      2.70674792	    108.66465018	    -10.02091298	     37.58418086	    123.92944336	    116.27844698	     99.63820761	     -4.45683531	     25.59652662	    130.23325652	    112.99120043
      6.75000000	    -41.45219918	      2.75329830	      3.26410350	     -0.38414175	      0.65518313	     -0.53351502	    106.65527535	     -5.46713796	      4.06320672	     84.96657746	      1.48294653	     24.94100370	    -12.76627785	     -7.49999987	    104.54451498	    -13.64674519	     -1.99792451	     77.63825184	      1.35504312	     17.35157282	     -2.10342047	     -7.49999987	    -34.86592507	      2.46891776	      2.70978936	    108.55341204	     -9.98214622	     37.53552696	    123.91910015	    116.27085595	     99.59310931	     -4.44090512	     25.62185105	    130.25993038	    113.33507965
      6.76000000	    -41.39631468	      2.68086724	      3.15937688	     -0.38404511	      0.65522476	     -0.53305934	    106.56218135	     -5.34789336	      3.95160752	     84.95042664	      1.48266465	     25.08624925	    -12.58157256	     -7.49999987	    104.54595487	    -13.75992374	     -1.85225504	     77.68398389	      1.35584129	     17.34176143	     -2.04807661	     -7.49999987	    -34.88502752	      2.36354012	      2.82420136	    108.47725611	    -10.07134251	     37.47734469	    124.01199927	    115.83946863	     99.54962444	     -4.27471912	     25.51519677	    129.97060263	    114.84088702
      6.77000000	    -41.32646540	      2.61734919	      3.05333888	     -0.38383461	      0.65532458	     -0.53262485	    106.46290589	     -5.23532525	      3.82811677	     84.94104280	      1.48250087	     25.00821359	    -12.75225709	     -7.49999987	    104.52855340	    -13.89258231	     -1.75290977	     77.75888993	      1.35714865	     17.41291134	     -1.92709437	     -7.49999987	    -34.91168818	      2.27182230	      2.88797909	    108.39375790	    -10.00422778	     37.35188949	    123.98823956	    115.85491663	     99.51986374	     -4.24460376	     25.62065363	    130.00555483	    114.85047173
      6.78000000	    -41.34226778	      2.56370050	      2.99037120	     -0.38357292	      0.65541865	     -0.53231952	    106.42696695	     -5.18735963	      3.72779705	     84.90948273	      1.48195004	     25.12797099	    -12.58631477	     -7.49999987	    104.55687396	    -13.97427370	     -1.68154530	     77.76600929	      1.35727291	     17.41976271	     -1.85023015	     -7.49999987	    -34.81292096	      2.20732826	      2.95494769	    108.32501664	     -9.97850820	     37.28197714	    124.01414322	    115.73781974	     99.43284513	     -4.19935526	     25.66859519	    130.01874994	    115.11358149
      6.79000000	    -41.32176853	      2.51049436	      2.92708408	     -0.38324833	      0.65560342	     -0.53205505	    106.35334475	     -5.16062900	      3.60337215	     84.86929794	      1.48124868	     25.02393992	    -12.59739843	     -7.49999987	    104.54232055	    -14.02669474	     -1.57679384	     77.79340654	      1.35775108	     17.41478960	     -1.90124980	     -7.49999987	    -34.71735221	      2.14805596	      2.94957184	    108.21655159	     -9.91709766	     37.22398366	    123.98071079	    115.86053572	     99.39699567	     -4.24041990	     25.76261017	    130.06753851	    114.84209489
      6.80000000	    -41.30894817	      2.47369108	      2.85690354	     -0.38285769	      0.65582613	     -0.53174975	    106.27079077	     -5.11662310	      3.49652432	     84.83477740	      1.48064619	     24.98816711	    -12.56397225	     -7.49999987	    104.50776719	    -14.10144004	     -1.49562891	     77.80487437	      1.35795123	     17.54576203	     -1.77486432	     -7.49999987	    -34.57278322	      2.07203818	      2.98371046	    108.13099122	     -9.91019021	     37.22978832	    123.94916093	    115.82621518	     99.29829606	     -4.24988772	     25.77873214	    130.06640172	    114.90019580
      6.81000000	    -41.29081450	      2.41580388	      2.76419036	     -0.38240397	      0.65616931	     -0.53140727	    106.15792092	     -5.04825711	      3.36025609	     84.78485787	      1.47977493	     25.02322078	    -12.53907590	     -7.49999987	    104.46523390	    -14.21198519	     -1.41706419	     77.80359945	      1.35792898	     17.60570654	     -1.73700011	     -7.49999987	    -34.39363036	      2.00996585	      3.04317405	    108.03813240	     -9.81465604	     37.15676499	    123.81801322	    115.86765268	     99.15141404	     -4.30083695	     25.83861818	    130.08794809	    114.81486741
      6.82000000	    -41.28984599	      2.37271885	      2.68728422	     -0.38189515	      0.65660660	     -0.53113176	    106.04112140	     -4.98486317	      3.26677879	     84.70257730	      1.47833886	     25.10630409	    -12.54440322	     -7.49999987	    104.40464591	    -14.29035962	     -1.35544955	     77.76837272	      1.35731416	     17.68094299	     -1.69771690	     -7.49999987	    -34.16457880	      1.94033378	      3.06497987	    107.91393518	     -9.72819592	     37.05485979	    123.66615408	    115.95502352	     98.99385509	     -4.35239866	     25.85121352	    130.12024289	    114.61795856
      6.83000000	    -41.26201584	      2.34423832	      2.67461631	     -0.38133904	      0.65717167	     -0.53118221	    105.90434083	     -5.03406239	      3.19272156	     84.63429611	      1.47714713	     25.29085172	    -12.34214816	     -7.49999987	    104.29153877	    -14.28388220	     -1.34027125	     77.72279529	      1.35651868	     17.77443288	     -1.69566420	     -7.49999987	    -33.94344810	      1.89265096	      3.04989257	    107.80449374	     -9.81511157	     36.97786035	    123.59376618	    115.86043517	     98.89172917	     -4.32307402	     25.81900136	    129.99960792	    114.88291039
      6.84000000	    -41.23046830	      2.31658344	      2.67618686	     -0.38074983	      0.65778518	     -0.53134823	    105.77335342	     -5.10168736	      3.13396891	     84.58198685	      1.47623416	     25.19785070	    -12.30622654	     -7.49999987	    104.16408895	    -14.23767786	     -1.30536676	     77.66894574	      1.35557883	     17.79786364	     -1.71466670	     -7.49999987	    -33.66766329	      1.86492668	      2.95248840	    107.66148849	     -9.93944628	     37.00083989	    123.32198260	    116.26590731	     98.76172434	     -4.46430933	     25.84065428	    130.03757667	    114.03859551
